<svg width="32" height="33" viewBox="0 0 32 33" fill="none" xmlns="http://www.w3.org/2000/svg">
<path d="M1.00342 1H3.67371C5.33113 1 6.63556 2.42722 6.49744 4.06929L5.73012 13.3539" stroke="black" stroke-width="1.39785" stroke-miterlimit="10" stroke-linecap="round" stroke-linejoin="round"/>
<path d="M10.5951 31.6928C11.6545 31.6928 12.5134 30.834 12.5134 29.7745C12.5134 28.715 11.6545 27.8562 10.5951 27.8562C9.53561 27.8562 8.67676 28.715 8.67676 29.7745C8.67676 30.834 9.53561 31.6928 10.5951 31.6928Z" stroke="black" stroke-width="1.39785" stroke-miterlimit="10" stroke-linecap="round" stroke-linejoin="round"/>
<path d="M22.8719 31.6928C23.9314 31.6928 24.7902 30.834 24.7902 29.7745C24.7902 28.715 23.9314 27.8562 22.8719 27.8562C21.8124 27.8562 20.9536 28.715 20.9536 29.7745C20.9536 30.834 21.8124 31.6928 22.8719 31.6928Z" stroke="black" stroke-width="1.39785" stroke-miterlimit="10" stroke-linecap="round" stroke-linejoin="round"/>
<path d="M5.22447 21.3696C5.00962 23.8711 6.98931 26.0196 9.50613 26.0196H25.85C28.0599 26.0196 29.9936 24.2087 30.1624 22.0141L30.9911 10.5043C31.1752 7.95679 29.2416 5.88501 26.6787 5.88501H6.86656" stroke="black" stroke-width="1.39785" stroke-miterlimit="10" stroke-linecap="round" stroke-linejoin="round"/>
<path d="M11.7458 10.2078H30.1616" stroke="black" stroke-width="1.39785" stroke-miterlimit="10" stroke-linecap="round" stroke-linejoin="round"/>
</svg>
