<svg width="31" height="29" viewBox="0 0 31 29" fill="none" xmlns="http://www.w3.org/2000/svg">
<path d="M22.2594 28.4644C17.9897 28.4644 14.5154 24.99 14.5154 20.7204C14.5154 16.4507 17.9897 12.9763 22.2594 12.9763C26.5291 12.9763 30.0035 16.4507 30.0035 20.7204C30.0035 24.99 26.5291 28.4644 22.2594 28.4644ZM22.2594 15.0693C19.1479 15.0693 16.6084 17.6088 16.6084 20.7204C16.6084 23.8319 19.1479 26.3714 22.2594 26.3714C25.371 26.3714 27.9105 23.8319 27.9105 20.7204C27.9105 17.6088 25.371 15.0693 22.2594 15.0693Z" fill="#292D32"/>
<path d="M24.7569 21.8506H19.7477C19.1756 21.8506 18.7012 21.3761 18.7012 20.8041C18.7012 20.232 19.1756 19.7576 19.7477 19.7576H24.7569C25.329 19.7576 25.8034 20.232 25.8034 20.8041C25.8034 21.3761 25.3429 21.8506 24.7569 21.8506Z" fill="#292D32"/>
<path d="M22.2577 24.4181C21.6856 24.4181 21.2112 23.9437 21.2112 23.3716V18.3624C21.2112 17.7903 21.6856 17.3159 22.2577 17.3159C22.8298 17.3159 23.3042 17.7903 23.3042 18.3624V23.3716C23.3042 23.9437 22.8298 24.4181 22.2577 24.4181Z" fill="#292D32"/>
<path d="M15.0031 26.9297C14.5706 26.9297 14.138 26.8739 13.7892 26.7483C10.2172 25.5344 0.00341797 19.6182 0.00341797 8.84637C0.00341797 3.96274 3.95218 0 8.80791 0C11.1381 0 13.3706 0.934895 15.0031 2.56742C16.6357 0.934895 18.8821 0 21.1984 0C26.0541 0 30.0029 3.96274 30.0029 8.84637C30.0029 11.5672 29.3471 14.1765 28.0494 16.6183C27.8959 16.9113 27.6029 17.1206 27.268 17.1625C26.9192 17.2043 26.5983 17.0927 26.3611 16.8415C25.2727 15.6974 23.8076 15.0555 22.2449 15.0555C19.1333 15.0555 16.5938 17.595 16.5938 20.7066C16.5938 22.088 17.1101 23.4275 18.0449 24.474C18.2682 24.7251 18.3519 25.06 18.2821 25.3809C18.2124 25.7018 17.9891 25.9809 17.6961 26.1204C17.138 26.3716 16.6357 26.5809 16.1752 26.7344C15.8543 26.8739 15.4357 26.9297 15.0031 26.9297ZM8.80791 2.09298C5.1103 2.09298 2.0964 5.12086 2.0964 8.84637C2.0964 18.3904 11.2637 23.6647 14.4729 24.767C14.7241 24.8647 15.2682 24.8507 15.5194 24.767C15.5613 24.753 15.6031 24.7391 15.645 24.7251C14.9194 23.5251 14.5148 22.1438 14.5148 20.7205C14.5148 16.4509 17.9891 12.9765 22.2588 12.9765C23.9053 12.9765 25.4681 13.4928 26.7797 14.4276C27.5331 12.6416 27.9099 10.7719 27.9099 8.84637C27.9099 5.12086 24.896 2.09298 21.1984 2.09298C19.1054 2.09298 17.0961 3.09769 15.8403 4.78603C15.4496 5.31625 14.5566 5.31625 14.1659 4.78603C12.9102 3.09769 10.9009 2.09298 8.80791 2.09298Z" fill="#292D32"/>
</svg>
